<?xml version="1.0" standalone="no"?>
<!DOCTYPE svg PUBLIC "-//W3C//DTD SVG 20010904//EN"
 "http://www.w3.org/TR/2001/REC-SVG-20010904/DTD/svg10.dtd">
<svg version="1.0" xmlns="http://www.w3.org/2000/svg"
 width="860.000000pt" height="641.000000pt" viewBox="0 0 860.000000 641.000000"
 preserveAspectRatio="xMidYMid meet">

<g transform="translate(0.000000,641.000000) scale(0.100000,-0.100000)"
fill="#000000" stroke="none">
<path d="M4098 5915 c-3 -3 -61 -12 -129 -20 -433 -50 -825 -193 -1173 -427
-415 -278 -721 -625 -931 -1053 -196 -400 -272 -739 -276 -1221 -1 -221 13
-365 56 -578 8 -39 16 -84 19 -99 3 -16 9 -34 14 -40 6 -7 13 -30 16 -52 8
-58 22 -111 32 -126 8 -13 33 -94 34 -111 0 -5 -10 -8 -22 -8 -18 0 -20 -2 -9
-9 8 -5 20 -7 27 -4 7 2 17 -5 23 -16 15 -26 14 -28 -10 -34 -19 -5 -18 -9 21
-87 168 -333 419 -656 689 -883 47 -39 95 -80 106 -90 39 -36 332 -226 420
-274 294 -158 594 -259 920 -309 172 -27 618 -27 790 0 600 93 1112 351 1536
775 237 238 384 445 530 746 89 185 147 344 194 535 59 243 70 343 70 650 0
307 -11 407 -70 650 -77 310 -214 618 -403 900 -61 91 -119 174 -129 185 -10
11 -50 58 -90 105 -76 90 -266 279 -346 345 -130 107 -319 230 -496 323 -94
50 -105 54 -116 39 -15 -21 -34 -22 -60 -3 -11 7 -44 19 -74 26 -30 7 -66 19
-80 26 -14 8 -35 14 -46 14 -11 0 -67 14 -123 30 -107 31 -333 71 -504 89 -99
11 -400 15 -410 6z m-778 -941 c0 -4 -89 -202 -197 -440 l-197 -434 -123 0
c-68 0 -123 2 -123 5 0 2 68 151 150 330 83 179 150 328 150 330 0 3 -74 5
-165 5 l-165 0 0 105 0 105 335 0 c184 0 335 -3 335 -6z m721 -8 c175 -38 289
-158 320 -339 30 -180 -30 -353 -153 -444 -93 -68 -136 -77 -390 -81 l-228 -4
0 441 0 441 193 0 c126 0 215 -5 258 -14z m971 -406 c87 -228 161 -425 164
-437 6 -23 6 -23 -114 -23 l-119 0 -30 83 -30 82 -154 3 -155 2 -29 -85 -30
-85 -117 0 c-65 0 -118 2 -118 4 0 3 66 177 146 388 80 211 155 407 166 436
l20 53 120 -3 121 -3 159 -415z m342 255 c49 -91 89 -165 91 -165 2 0 43 74
91 165 l88 165 124 0 c96 0 123 -3 119 -13 -2 -7 -73 -134 -156 -282 l-151
-270 0 -157 0 -158 -120 0 -120 0 0 155 0 156 -152 276 c-84 152 -154 280
-156 285 -2 4 54 8 125 8 l129 0 88 -165z m-1794 -340 l0 -95 -175 0 -175 0 0
95 0 95 175 0 175 0 0 -95z m-490 -655 l0 -170 -325 0 -325 0 0 -145 0 -145
300 0 300 0 0 -170 0 -170 -300 0 -300 0 0 -260 0 -260 -200 0 -200 0 0 745 0
745 525 0 525 0 0 -170z m875 155 c205 -43 338 -173 380 -372 26 -123 11 -254
-41 -361 -33 -67 -114 -149 -179 -182 -28 -14 -52 -26 -54 -27 -2 -1 72 -118
165 -260 l169 -257 3 737 2 737 535 0 535 0 0 -170 0 -170 -340 0 -340 0 0
-110 0 -110 310 0 310 0 0 -170 0 -170 -310 0 -310 0 0 -125 0 -125 340 0 340
0 0 -170 0 -170 -754 0 -754 0 -154 245 -153 245 -62 0 -63 0 0 -245 0 -245
-195 0 -195 0 0 745 0 745 373 0 c288 0 388 -4 442 -15z m2645 -155 l0 -170
-340 0 -340 0 0 -110 0 -110 310 0 310 0 0 -170 0 -170 -310 0 -310 0 0 -125
0 -125 340 0 340 0 0 -170 0 -170 -535 0 -535 0 0 745 0 745 535 0 535 0 0
-170z m-3200 -1550 l0 -100 -135 0 -135 0 0 -340 0 -340 -115 0 -115 0 0 340
0 340 -135 0 -135 0 0 100 0 100 385 0 385 0 0 -100z m565 72 c65 -30 112 -75
141 -137 19 -40 24 -66 24 -136 0 -76 -4 -94 -28 -140 -25 -48 -88 -109 -124
-121 -9 -3 19 -53 82 -148 l95 -143 3 426 2 427 120 0 120 0 2 -419 3 -418
159 418 160 419 120 0 121 0 160 -420 160 -421 3 421 2 420 120 0 120 0 0
-335 0 -335 193 -2 192 -3 3 -103 3 -102 -433 2 -433 3 -30 83 -30 82 -155 -2
-155 -3 -29 -82 -30 -83 -361 0 -360 0 -90 145 c-90 144 -90 144 -127 145
l-38 0 0 -145 0 -145 -115 0 -115 0 0 441 0 441 248 -4 c233 -3 250 -4 297
-26z"/>
<path d="M3820 4535 l0 -235 50 0 c170 0 259 79 260 230 0 166 -71 239 -232
240 l-78 0 0 -235z"/>
<path d="M4691 4582 c-19 -53 -36 -103 -39 -109 -3 -10 17 -13 78 -13 62 0 81
3 77 13 -2 6 -19 53 -37 102 -18 50 -35 93 -39 97 -3 4 -21 -37 -40 -90z"/>
<path d="M3520 3485 l0 -175 148 0 c123 0 154 4 189 20 101 45 124 191 45 271
-47 46 -103 59 -262 59 l-120 0 0 -175z"/>
<path d="M3640 2071 l0 -101 96 0 c92 0 97 1 125 29 38 39 40 97 5 138 -23 27
-29 28 -125 31 l-101 4 0 -101z"/>
<path d="M4820 2045 c-6 -16 -25 -65 -40 -107 l-29 -78 80 0 c43 0 79 1 79 3
0 1 -18 49 -39 107 -39 103 -39 105 -51 75z"/>
</g>
</svg>
